<svg width="112" height="32" viewBox="0 0 112 32" fill="none" xmlns="http://www.w3.org/2000/svg">
<g clip-path="url(#clip0_4_58)">
<path d="M7.5813 16H5.5813V9.33332H2.91463V6.66666H10.9146V9.33332H8.24796V13.06L21.332 9.55466L20.5586 6.66666H16.248V3.99999H21.552C21.8505 3.9934 22.1425 4.08719 22.3814 4.26633C22.6202 4.44547 22.792 4.69959 22.8693 4.98799L24.94 12.716L22.364 13.4053L22.0226 12.1307L7.5813 16ZM6.91463 25.3333C7.62188 25.3333 8.30015 25.0524 8.80025 24.5523C9.30035 24.0522 9.5813 23.3739 9.5813 22.6667C9.5813 21.9594 9.30035 21.2811 8.80025 20.781C8.30015 20.2809 7.62188 20 6.91463 20C6.20739 20 5.52911 20.2809 5.02901 20.781C4.52892 21.2811 4.24797 21.9594 4.24797 22.6667C4.24797 23.3739 4.52892 24.0522 5.02901 24.5523C5.52911 25.0524 6.20739 25.3333 6.91463 25.3333ZM6.91463 28C5.50014 28 4.14359 27.4381 3.1434 26.4379C2.1432 25.4377 1.5813 24.0811 1.5813 22.6667C1.5813 21.2522 2.1432 19.8956 3.1434 18.8954C4.14359 17.8952 5.50014 17.3333 6.91463 17.3333C8.32912 17.3333 9.68567 17.8952 10.6859 18.8954C11.6861 19.8956 12.248 21.2522 12.248 22.6667C12.248 24.0811 11.6861 25.4377 10.6859 26.4379C9.68567 27.4381 8.32912 28 6.91463 28ZM24.248 25.3333C25.3088 25.3333 26.3262 24.9119 27.0764 24.1617C27.8265 23.4116 28.248 22.3942 28.248 21.3333C28.248 20.2725 27.8265 19.255 27.0764 18.5049C26.3262 17.7547 25.3088 17.3333 24.248 17.3333C23.1871 17.3333 22.1697 17.7547 21.4195 18.5049C20.6694 19.255 20.248 20.2725 20.248 21.3333C20.248 22.3942 20.6694 23.4116 21.4195 24.1617C22.1697 24.9119 23.1871 25.3333 24.248 25.3333ZM24.248 28C22.4799 28 20.7842 27.2976 19.5339 26.0474C18.2837 24.7971 17.5813 23.1014 17.5813 21.3333C17.5813 19.5652 18.2837 17.8695 19.5339 16.6193C20.7842 15.369 22.4799 14.6667 24.248 14.6667C26.0161 14.6667 27.7118 15.369 28.962 16.6193C30.2123 17.8695 30.9146 19.5652 30.9146 21.3333C30.9146 23.1014 30.2123 24.7971 28.962 26.0474C27.7118 27.2976 26.0161 28 24.248 28Z" fill="white"/>
</g>
<path d="M38.248 25.856V5.92H44.616C45.832 5.92 46.888 6.048 47.784 6.304C48.7013 6.53866 49.4587 6.89066 50.056 7.36C50.6747 7.808 51.1333 8.352 51.432 8.992C51.752 9.61066 51.912 10.304 51.912 11.072C51.912 11.584 51.8053 12.128 51.592 12.704C51.3787 13.2587 51.0693 13.7707 50.664 14.24C50.2587 14.7093 49.7573 15.072 49.16 15.328C49.6933 15.584 50.1733 15.8827 50.6 16.224C51.048 16.5653 51.4213 16.9387 51.72 17.344C52.04 17.728 52.2747 18.144 52.424 18.592C52.5947 19.04 52.68 19.5093 52.68 20C52.68 20.8747 52.5093 21.6747 52.168 22.4C51.8267 23.1253 51.3147 23.744 50.632 24.256C49.9493 24.768 49.1067 25.1627 48.104 25.44C47.1013 25.7173 45.928 25.856 44.584 25.856H38.248ZM42.792 22.176H44.936C45.5973 22.176 46.152 22.08 46.6 21.888C47.048 21.6747 47.3893 21.3973 47.624 21.056C47.8587 20.7147 47.976 20.3307 47.976 19.904C47.976 19.3707 47.8587 18.912 47.624 18.528C47.4107 18.1227 47.0373 17.8133 46.504 17.6C45.992 17.3653 45.2987 17.248 44.424 17.248H42.792V22.176ZM42.792 13.696H44.328C45.1173 13.696 45.7253 13.6107 46.152 13.44C46.6 13.248 46.9093 12.9813 47.08 12.64C47.2507 12.2987 47.336 11.904 47.336 11.456C47.336 11.136 47.2827 10.8587 47.176 10.624C47.0693 10.3893 46.8987 10.1973 46.664 10.048C46.4507 9.87733 46.1733 9.74933 45.832 9.664C45.4907 9.57866 45.096 9.536 44.648 9.536H42.792V13.696Z" fill="white"/>
<path d="M65.224 21.984H57.064L57.608 18.848H64.584L65.224 21.984ZM61.32 13.664L58.088 25.856H53.608L59.944 5.92H62.664L69 25.856H64.456L61.32 13.664Z" fill="white"/>
<path d="M71.304 25.856V22.24H75.176V9.536H71.496V5.92H83.272V9.536H79.4V22.24H83.432V25.856H71.304Z" fill="white"/>
<path d="M91.816 17.472L90.664 19.2V25.856H86.344V5.92H90.632H90.92V6.272C90.8133 6.4 90.7387 6.53866 90.696 6.688C90.6747 6.83733 90.664 7.09333 90.664 7.456V13.408L96.2 5.728C96.3707 5.77066 96.584 5.80266 96.84 5.824C97.1173 5.84533 97.3947 5.86666 97.672 5.888C97.9493 5.90933 98.2053 5.92 98.44 5.92C98.6747 5.92 98.856 5.92 98.984 5.92H101.192L94.952 14.112L101.48 25.824L96.52 25.984L91.816 17.472Z" fill="white"/>
<path d="M108.968 26.272C108.179 26.272 107.507 26.0053 106.952 25.472C106.419 24.9173 106.152 24.2453 106.152 23.456C106.152 22.688 106.419 22.0373 106.952 21.504C107.507 20.9493 108.179 20.672 108.968 20.672C109.736 20.672 110.387 20.9493 110.92 21.504C111.475 22.0373 111.752 22.688 111.752 23.456C111.752 24.2453 111.475 24.9173 110.92 25.472C110.387 26.0053 109.736 26.272 108.968 26.272Z" fill="white"/>
<defs>
<clipPath id="clip0_4_58">
<rect width="32" height="32" fill="white" transform="translate(0.247986)"/>
</clipPath>
</defs>
</svg>
